<svg width="623" height="640" viewBox="0 0 623 640" fill="none" xmlns="http://www.w3.org/2000/svg">
<path d="M0 567.777L71.449 638.791H498.741L427.313 567.601L0 567.777Z" fill="url(#paint0_linear_29_36)"/>
<path d="M447.404 454.294L518.846 525.736L498.74 639.645L427.312 568.241L447.404 454.294Z" fill="url(#paint1_linear_29_36)"/>
<path d="M550.749 0L622.191 71.442L285.703 525.736L214.261 454.294L550.749 0Z" fill="url(#paint2_linear_29_36)"/>
<path d="M102.538 112.928L174.042 183.913H407.063L335.746 113.263L102.538 112.928Z" fill="url(#paint3_linear_29_36)"/>
<path d="M335.743 113.949H102.598L122.69 0H550.747L214.258 454.294H447.401L427.309 568.242H0.00390625L335.743 113.949Z" fill="white"/>
<defs>
<linearGradient id="paint0_linear_29_36" x1="0.0004" y1="603.196" x2="498.741" y2="603.196" gradientUnits="userSpaceOnUse">
<stop stop-color="#97A3AE"/>
<stop offset="1" stop-color="#C1C5C8"/>
</linearGradient>
<linearGradient id="paint1_linear_29_36" x1="427.312" y1="546.97" x2="518.846" y2="546.97" gradientUnits="userSpaceOnUse">
<stop stop-color="#97A3AE"/>
<stop offset="0.9949" stop-color="#EC7800"/>
</linearGradient>
<linearGradient id="paint2_linear_29_36" x1="214.261" y1="262.868" x2="622.191" y2="262.868" gradientUnits="userSpaceOnUse">
<stop stop-color="#97A3AE"/>
<stop offset="0.9949" stop-color="#EC7800"/>
</linearGradient>
<linearGradient id="paint3_linear_29_36" x1="102.538" y1="148.421" x2="407.063" y2="148.421" gradientUnits="userSpaceOnUse">
<stop stop-color="#97A3AE"/>
<stop offset="1" stop-color="#C1C5C8"/>
</linearGradient>
</defs>
</svg>
